<?xml version="1.0" encoding="UTF-8" standalone="no"?>
<!DOCTYPE svg PUBLIC "-//W3C//DTD SVG 1.1//EN" "http://www.w3.org/Graphics/SVG/1.1/DTD/svg11.dtd">
<svg width="100%" height="100%" viewBox="0 0 1569 423" version="1.1" xmlns="http://www.w3.org/2000/svg" xmlns:xlink="http://www.w3.org/1999/xlink" xml:space="preserve" xmlns:serif="http://www.serif.com/" style="fill-rule:evenodd;clip-rule:evenodd;stroke-linejoin:round;stroke-miterlimit:2;">
    <g transform="matrix(1,0,0,1,-464.318,-935.808)">
        <g transform="matrix(0.929803,0,0,1.03103,-66.4853,-585.998)">
            <path d="M590.809,1476.01L719.32,1476.01L719.32,1784.61L919.887,1784.61L919.887,1885.43L590.809,1885.43L590.809,1476.01Z" style="fill:rgb(207,207,207);fill-opacity:0.75;fill-rule:nonzero;"/>
            <path d="M1234.21,1817.85L1087.83,1817.85L1067.69,1885.43L936.341,1885.43L1092.65,1476.01L1232.8,1476.01L1389.11,1885.43L1254.64,1885.43L1234.21,1817.85ZM1207.26,1729.32L1161.31,1582.13L1115.63,1729.32L1207.26,1729.32Z" style="fill:rgb(207,207,207);fill-opacity:0.75;fill-rule:nonzero;"/>
            <path d="M1430.24,1476.01L1558.75,1476.01L1558.75,1784.61L1759.32,1784.61L1759.32,1885.43L1430.24,1885.43L1430.24,1476.01Z" style="fill:rgb(207,207,207);fill-opacity:0.75;fill-rule:nonzero;"/>
            <path d="M2073.65,1817.85L1927.26,1817.85L1907.12,1885.43L1775.77,1885.43L1932.09,1476.01L2072.23,1476.01L2228.54,1885.43L2094.07,1885.43L2073.65,1817.85ZM2046.7,1729.32L2000.74,1582.13L1955.07,1729.32L2046.7,1729.32Z" style="fill:rgb(207,207,207);fill-opacity:0.75;fill-rule:nonzero;"/>
        </g>
        <g transform="matrix(0.961172,0,0,0.930703,-68.8072,-415.809)">
            <path d="M930.867,1760.15L921.55,1760.15C916.308,1767.01 911.067,1773.88 905.826,1780.17C852.831,1841.38 811.483,1864.84 773.047,1868.84C703.746,1876.28 685.693,1859.69 685.693,1795.62L685.693,1565.64C685.693,1514.15 699.67,1494.7 736.941,1484.98C741.6,1483.83 746.841,1483.26 752.082,1482.69L752.082,1473.53L554.662,1473.53L554.662,1482.69C559.321,1483.26 563.979,1483.83 568.638,1485.55C602.415,1494.7 614.645,1514.15 614.645,1565.64L614.645,1793.33C614.645,1844.82 602.415,1864.27 568.638,1873.42C563.979,1875.13 559.321,1875.71 554.662,1876.28L554.662,1885.43L894.179,1885.43L930.867,1760.15ZM817.307,1869.99L827.789,1864.84C848.754,1852.82 864.478,1840.81 881.367,1823.08C884.278,1820.22 886.608,1816.78 888.937,1813.92L872.631,1869.99L817.307,1869.99ZM692.681,1484.98C692.681,1484.98 681.034,1491.27 675.211,1496.42C669.387,1501.57 665.31,1506.14 662.399,1513.01C658.322,1522.16 658.904,1528.45 658.904,1538.75L658.904,1820.22C658.904,1826.51 658.322,1829.94 658.904,1835.66C660.652,1847.1 666.475,1853.97 675.211,1861.4C679.287,1864.84 687.44,1869.99 687.44,1869.99L597.756,1869.99C597.756,1869.99 605.327,1864.84 609.404,1861.4C614.645,1856.83 618.721,1850.54 621.633,1843.67C625.127,1835.66 626.292,1829.37 626.292,1820.22L626.292,1538.75C626.292,1529.03 625.71,1523.3 622.798,1514.15C620.469,1507.29 617.557,1502.14 612.898,1496.99C607.074,1490.69 592.515,1484.98 592.515,1484.98L692.681,1484.98Z" style="fill-rule:nonzero;"/>
            <path d="M1063.06,1876.28C1058.4,1875.71 1053.75,1874.56 1049.09,1873.42C1000.17,1859.69 986.192,1832.8 1004.25,1784.17C1005.41,1780.17 1007.16,1775.59 1008.9,1771.59L1026.38,1732.69L1184.19,1732.69L1217.97,1809.35C1219.14,1812.21 1220.3,1814.5 1221.47,1817.36C1236.03,1853.4 1226.71,1868.84 1185.36,1875.71C1180.12,1876.28 1175.46,1876.28 1170.22,1876.28L1170.22,1885.43L1366.47,1885.43L1366.47,1876.28C1362.98,1875.71 1360.07,1874.56 1356.57,1873.99C1330.95,1865.98 1318.72,1853.4 1297.76,1811.63L1292.51,1799.62C1216.23,1632.57 1140.52,1465.52 1140.52,1465.52L1132.37,1465.52C1132.37,1465.52 1065.39,1616.55 997.257,1767.58C965.809,1837.95 939.603,1864.27 903.496,1876.28L903.496,1885.43L1063.06,1885.43L1063.06,1876.28ZM1104.41,1556.49L1178.37,1720.1L1031.62,1720.1L1104.41,1556.49ZM1128.29,1503.85L1259.9,1795.04L1266.31,1809.35C1266.31,1809.35 1269.22,1815.64 1272.71,1821.93C1283.78,1843.67 1294.26,1857.97 1307.66,1869.99L1226.71,1869.99C1229.04,1868.27 1230.78,1865.98 1233.11,1863.69C1244.76,1848.25 1244.76,1839.09 1231.95,1811.63C1171.38,1677.77 1110.82,1543.33 1110.82,1543.33L1128.29,1503.85ZM984.445,1818.5L984.445,1826.51C985.027,1843.1 991.433,1858.55 1003.66,1869.99L940.768,1869.99C940.768,1869.99 950.085,1862.55 959.403,1854.54C962.315,1852.25 966.392,1848.25 972.797,1839.09C977.456,1831.66 981.533,1824.79 984.445,1818.5Z" style="fill-rule:nonzero;"/>
            <path d="M1750.65,1760.15L1741.34,1760.15C1736.1,1767.01 1730.85,1773.88 1725.61,1780.17C1672.62,1841.38 1631.27,1864.84 1592.83,1868.84C1523.53,1876.28 1505.48,1859.69 1505.48,1795.62L1505.48,1565.64C1505.48,1514.15 1519.46,1494.7 1556.73,1484.98C1561.39,1483.83 1566.63,1483.26 1571.87,1482.69L1571.87,1473.53L1374.45,1473.53L1374.45,1482.69C1379.11,1483.26 1383.77,1483.83 1388.42,1485.55C1422.2,1494.7 1434.43,1514.15 1434.43,1565.64L1434.43,1793.33C1434.43,1844.82 1422.2,1864.27 1388.42,1873.42C1383.77,1875.13 1379.11,1875.71 1374.45,1876.28L1374.45,1885.43L1713.97,1885.43L1750.65,1760.15ZM1637.09,1869.99L1647.58,1864.84C1668.54,1852.82 1684.27,1840.81 1701.15,1823.08C1704.07,1820.22 1706.39,1816.78 1708.72,1813.92L1692.42,1869.99L1637.09,1869.99ZM1512.47,1484.98C1512.47,1484.98 1500.82,1491.27 1495,1496.42C1489.17,1501.57 1485.1,1506.14 1482.19,1513.01C1478.11,1522.16 1478.69,1528.45 1478.69,1538.75L1478.69,1820.22C1478.69,1826.51 1478.11,1829.94 1478.69,1835.66C1480.44,1847.1 1486.26,1853.97 1495,1861.4C1499.07,1864.84 1507.23,1869.99 1507.23,1869.99L1417.54,1869.99C1417.54,1869.99 1425.11,1864.84 1429.19,1861.4C1434.43,1856.83 1438.51,1850.54 1441.42,1843.67C1444.91,1835.66 1446.08,1829.37 1446.08,1820.22L1446.08,1538.75C1446.08,1529.03 1445.5,1523.3 1442.59,1514.15C1440.26,1507.29 1437.34,1502.14 1432.68,1496.99C1426.86,1490.69 1412.3,1484.98 1412.3,1484.98L1512.47,1484.98Z" style="fill-rule:nonzero;"/>
            <path d="M1882.85,1876.28C1878.19,1875.71 1873.53,1874.56 1868.87,1873.42C1819.96,1859.69 1805.98,1832.8 1824.03,1784.17C1825.2,1780.17 1826.94,1775.59 1828.69,1771.59L1846.16,1732.69L2003.98,1732.69L2037.76,1809.35C2038.92,1812.21 2040.09,1814.5 2041.25,1817.36C2055.81,1853.4 2046.49,1868.84 2005.15,1875.71C1999.9,1876.28 1995.25,1876.28 1990.01,1876.28L1990.01,1885.43L2186.26,1885.43L2186.26,1876.28C2182.77,1875.71 2179.86,1874.56 2176.36,1873.99C2150.74,1865.98 2138.51,1853.4 2117.54,1811.63L2112.3,1799.62C2036.01,1632.57 1960.31,1465.52 1960.31,1465.52L1952.15,1465.52C1952.15,1465.52 1885.18,1616.55 1817.04,1767.58C1785.6,1837.95 1759.39,1864.27 1723.28,1876.28L1723.28,1885.43L1882.85,1885.43L1882.85,1876.28ZM1924.2,1556.49L1998.16,1720.1L1851.4,1720.1L1924.2,1556.49ZM1948.08,1503.85L2079.69,1795.04L2086.1,1809.35C2086.1,1809.35 2089.01,1815.64 2092.5,1821.93C2103.57,1843.67 2114.05,1857.97 2127.44,1869.99L2046.49,1869.99C2048.82,1868.27 2050.57,1865.98 2052.9,1863.69C2064.55,1848.25 2064.55,1839.09 2051.74,1811.63C1991.17,1677.77 1930.6,1543.33 1930.6,1543.33L1948.08,1503.85ZM1804.23,1818.5L1804.23,1826.51C1804.81,1843.1 1811.22,1858.55 1823.45,1869.99L1760.56,1869.99C1760.56,1869.99 1769.87,1862.55 1779.19,1854.54C1782.1,1852.25 1786.18,1848.25 1792.59,1839.09C1797.24,1831.66 1801.32,1824.79 1804.23,1818.5Z" style="fill-rule:nonzero;"/>
        </g>
    </g>
</svg>
